<svg width="20" height="16" viewBox="0 0 20 16" fill="none" xmlns="http://www.w3.org/2000/svg">
<path d="M19.2145 0.79001C18.7065 0.280014 18.0315 0 17.3145 0L2.68952 0C1.20645 0 0 1.20721 0 2.6912L0 12.6934C0 14.1774 1.20645 15.3854 2.68952 15.3854H17.3105C18.7936 15.3854 20 14.1774 20 12.6934V2.69443C20.0016 1.97704 19.7226 1.30001 19.2145 0.79001ZM1.53766 2.69443C1.53766 2.16264 2.15806 1.53846 2.68871 1.53846H17.3097C17.8403 1.53846 18.4615 2.16345 18.4615 2.69443V12.6926V12.7798C18.4172 13.2696 17.8153 13.8462 17.3137 13.8462H2.68952C2.15806 13.8462 1.53846 13.2236 1.53846 12.6926L1.53766 2.69443Z" fill="white"/>
<path d="M7.38859 7.27721L4.11334 10.2999C3.80898 10.588 3.79401 11.0716 4.0777 11.379C4.22881 11.5359 4.43124 11.6229 4.63724 11.6229C4.8304 11.6229 5.01501 11.5495 5.15686 11.4182L8.53333 8.30426L9.49987 9.16798C9.64242 9.2928 9.82205 9.36127 10.0088 9.36127C10.1977 9.36127 10.3844 9.28781 10.5213 9.16085L11.5149 8.27003L14.8664 11.4211C15.0061 11.5552 15.1929 11.6308 15.391 11.6308C15.6013 11.6308 15.7973 11.5466 15.9435 11.3933C16.0846 11.2442 16.1594 11.0495 16.153 10.8434C16.1473 10.6394 16.0625 10.4504 15.9149 10.312L12.6518 7.24725L15.8928 4.41286C16.205 4.12971 16.23 3.64543 15.9499 3.33303C15.8038 3.17184 15.597 3.08055 15.3818 3.08055C15.1936 3.08055 15.0126 3.14973 14.8721 3.27526L10.0045 7.57391L9.11069 6.77509L9.07505 6.738C9.04083 6.70305 9.00591 6.6731 8.96599 6.64386L5.11765 3.27169C4.97724 3.14616 4.7969 3.07698 4.60944 3.07698C4.39204 3.07698 4.1839 3.17041 4.03921 3.33303C3.75908 3.64685 3.78617 4.13114 4.10051 4.41286L7.38859 7.27721Z" fill="white"/>
</svg>
